<?xml version="1.0" encoding="UTF-8"?>
<svg id="Layer_1" xmlns="http://www.w3.org/2000/svg" version="1.1" viewBox="0 0 1920 1080">
  <!-- Generator: Adobe Illustrator 29.2.1, SVG Export Plug-In . SVG Version: 2.1.0 Build 116)  -->
  <defs>
    <style>
      .st0 {
        fill: #231f20;
      }

      .st1 {
        fill: #03a79c;
      }
    </style>
  </defs>
  <path class="st0" d="M1013.3,459.7c1.8,1.5,4.8,1.2,7,1.7,56.2,12.6,51.5,95.6-5.3,100.3-9.6.8-21.7.8-31.5,1s-9.5-.1-14.3,0v-30.5c7.3.4,14.5-.5,21.8-.5s5.5.7,8.5.5c17.9-1.2,29.6-23,14.5-35.5s-28.6-4.4-42.5-6-1.8-.3-2.5-1l.3-30h44Z"/>
  <polygon class="st0" points="967.3 459.7 967.8 628.7 931.8 628.7 931.8 459.7 967.3 459.7"/>
  <path class="st0" d="M848.3,459.7l-38,101c-.7.4-1.4.5-2.2.5-13.4.2-26.9-.2-40.3,0,14.3-33.8,28.3-67.7,42.5-101.5h38Z"/>
  <path class="st1" d="M810.3,560.7c-.3,1.9,1.8.5,3.2.5,10.9-.2,21.8.4,32.6.4.6,0,1.1-.4,1.2-.4,15,0,30,0,45,0,10.2,0,20.3,0,30.5,0,0,.7-1.5,1.1-2,1.2-8,2.7-16.1,5.6-24,8.3-13.4,4.5-27,8.6-40.5,13-20.8,6.8-41.9,13.3-62.7,20.6l-1.6,1.9-8.7,22.5h-44.5c9.5-22.6,19.4-45,29-67.5,13.4-.2,26.9.3,40.3,0s1.5-.2,2.2-.5Z"/>
  <path class="st0" d="M847.3,561.2l-18.1-45.2c2.7-8,5.7-15.9,8.7-23.8s9.5-21,11.3-29.7,0-1,1.2-.8l41.8,99.5c-15,0-30,0-45,0Z"/>
  <path class="st0" d="M896.8,570.7l24,58h-46.5l-18-45c13.5-4.4,27.1-8.5,40.5-13Z"/>
</svg>